<?xml version="1.0" ?>
<svg id="Lineal" viewBox="0 0 512 512" xmlns="http://www.w3.org/2000/svg" style="fill: currentColor">
  <title/><g data-name="48. Coronavirus on Petri dish" id="_48._Coronavirus_on_Petri_dish">
  <path d="M480,256C480,132.49,379.51,32,256,32S32,132.49,32,256,132.49,480,256,480c101.5,0,190.54-68.43,216.53-166.4A8,8,0,0,1,488,317.7C460.14,422.68,364.74,496,256,496,123.35,496,16,388.66,16,256S123.34,16,256,16,496,123.34,496,256a8,8,0,0,1-16,0ZM256,451c107.52,0,195-87.48,195-195S363.52,61,256,61,61,148.48,61,256c0,88.41,58.79,162.93,139.21,186.9a8,8,0,0,0,4.57-15.33C129.55,405.14,77,334.59,77,256c0-98.7,80.3-179,179-179s179,80.3,179,179S354.7,435,256,435a8,8,0,0,0,0,16Zm-1.06-198.91A8,8,0,0,0,243.83,250C216.71,268.35,180,248.7,180,216a41,41,0,0,1,82,0,8,8,0,0,0,16,0,57,57,0,0,0-114,0c0,45.58,51.16,72.72,88.81,47.21A8,8,0,0,0,254.94,252.09ZM229.79,139a8,8,0,0,0,0-16H212.21a8,8,0,0,0,0,16ZM212.21,293a8,8,0,0,0,0,16h17.58a8,8,0,0,0,0-16ZM128,207.21v17.58a8,8,0,0,0,16,0V207.21a8,8,0,0,0-16,0Zm186,17.58V207.21a8,8,0,0,0-16,0v17.58a8,8,0,0,0,16,0Zm-153.67-57,12.44-12.43A8,8,0,0,0,161.46,144L149,156.46a8,8,0,0,0,11.31,11.31ZM293,264.23a8,8,0,0,0-11.32,0l-12.43,12.43A8,8,0,1,0,280.54,288L293,275.54A8,8,0,0,0,293,264.23ZM149,275.54,161.46,288a8,8,0,1,0,11.31-11.32l-12.44-12.43A8,8,0,1,0,149,275.54ZM280.54,144a8,8,0,1,0-11.31,11.32l12.43,12.43A8,8,0,1,0,293,156.46Zm-58.18,65a13,13,0,1,1-13-13A13,13,0,0,1,222.36,209.05ZM375,288a32,32,0,1,1,32-32A32,32,0,0,1,375,288Zm0-16a16,16,0,1,0-16-16A16,16,0,0,0,375,272Zm-99,67a12,12,0,1,1-12,12A12,12,0,0,1,276,339Z" fill="currentColor" />
</g></svg>
