<?xml version="1.0" ?><svg data-name="Layer 1" id="Layer_1" viewBox="0 0 128 128" xmlns="http://www.w3.org/2000/svg"><defs><style>.cls-1{fill:#feaca4;}.cls-2{fill:#2d4356;}.cls-3{fill:#fc785e;}.cls-4{fill:#ffdb80;}.cls-5{fill:#94e1e4;}.cls-6{fill:#ad9359;opacity:0.45;}.cls-7{fill:#ffdedc;}.cls-11,.cls-7,.cls-8,.cls-9{opacity:0.5;}.cls-8{fill:#aa7371;}.cls-9{fill:#f9edd2;}.cls-10{fill:#f9dbd7;}.cls-10,.cls-12{opacity:0.3;}.cls-11{fill:#a54b3f;}.cls-12{fill:#f5ffff;}</style></defs><title/><path class="cls-1" d="M110.5,79.96a11.70731,11.70731,0,0,1-2.55,7.25,2.062,2.062,0,0,1-1.6.79H21.42a1.89513,1.89513,0,0,1-1.67-.9,9.10843,9.10843,0,0,1-1.25-4.57,7.82746,7.82746,0,0,1,3.52-6.64,1.982,1.982,0,0,0,.92-1.76l-.01-.27c-.01-.13-.02-.26-.02-.39a9.5949,9.5949,0,0,1,7.27-9.51,2.01728,2.01728,0,0,0,1.57-2.11c-.01-.23-.03-.45-.03-.69a7.07767,7.07767,0,0,1,6.82-7.3,6.39321,6.39321,0,0,1,3.59,1.11c.28,6.9,5.35,12.43,11.57,12.43a2,2,0,0,0,0-4c-4.19,0-7.6-4.05-7.6-9.03a10.44846,10.44846,0,0,1,.28-2.32,9.23462,9.23462,0,0,1,14.98-1.33A11.56038,11.56038,0,0,0,72.9,61.4a2,2,0,0,0,0-4,7.71744,7.71744,0,0,1-3.82-1.02,7.619,7.619,0,0,1-3.57-4.89c.03-.05.07-.1.1-.16A8.18521,8.18521,0,0,1,72.7,47a8.02461,8.02461,0,0,1,6.19,3.01,1.99809,1.99809,0,0,0,2.46.50995,7.34281,7.34281,0,0,1,3.35-.83,8.007,8.007,0,0,1,7.71,7.69A2.01453,2.01453,0,0,0,94.4,59.25a8.23332,8.23332,0,0,1,7.8,6.76,1.92144,1.92144,0,0,0-.1.59,7.4686,7.4686,0,0,1-7.31,7.6,7.18645,7.18645,0,0,1-5.87-3.05,1.99541,1.99541,0,1,0-3.24,2.33,11.17186,11.17186,0,0,0,19.6-2.58A10.18687,10.18687,0,0,1,110.5,79.96Z"/><path class="cls-2" d="M33.29932,83.00049a1.98867,1.98867,0,0,0,.59082-.08984c3.65625-1.12939,6.21-5.16748,6.21-9.81934a11.07614,11.07614,0,0,0-3.08789-7.91895,1.99988,1.99988,0,0,0-2.80078,2.85547,7.17366,7.17366,0,0,1,1.88867,5.06348c0,2.86816-1.42578,5.39063-3.39062,5.998a2.0002,2.0002,0,0,0,.58984,3.91113Z"/><path class="cls-2" d="M79.28027,71.00049a2.001,2.001,0,0,0,1.85205-2.75439,3.07485,3.07485,0,0,1,.269-2.85791A3.61533,3.61533,0,0,1,85.5,63.96875a1.99987,1.99987,0,1,0,1.2002-3.81543,7.578,7.578,0,0,0-8.66846,3.07959,7.11667,7.11667,0,0,0-.60449,6.521A2.00049,2.00049,0,0,0,79.28027,71.00049Z"/><path class="cls-2" d="M53.70068,85.3999A6.80729,6.80729,0,0,0,60.5,78.6001a2,2,0,0,0-4,0,2.8,2.8,0,0,1-5.6001,0,2,2,0,0,0-4,0A6.80792,6.80792,0,0,0,53.70068,85.3999Z"/><path class="cls-2" d="M69.2998,85.3999a2.0001,2.0001,0,0,0,2-2,2.8,2.8,0,0,1,5.6001,0,2,2,0,0,0,4,0,6.8,6.8,0,0,0-13.6001,0A2.0001,2.0001,0,0,0,69.2998,85.3999Z"/><path class="cls-2" d="M106.39,66.98A12.47381,12.47381,0,0,0,96.17,55.4,11.92392,11.92392,0,0,0,84.7,45.69a11.02987,11.02987,0,0,0-3.76.66A11.87737,11.87737,0,0,0,72.7,43a12.03287,12.03287,0,0,0-9.11,4.26,13.228,13.228,0,0,0-9.22-3.77A13.40267,13.40267,0,0,0,43.3,49.45,2.02986,2.02986,0,0,0,42.63,50.46c-.01.03-.01.06-.02.09-.02.04-.04.07-.06.11a10.3254,10.3254,0,0,0-4.01-.8,11.0423,11.0423,0,0,0-10.8,10.65,13.72,13.72,0,0,0-8.83,12.7,11.83859,11.83859,0,0,0-4.41,9.32,13.171,13.171,0,0,0,1.79,6.58A5.91882,5.91882,0,0,0,21.42,92h84.93a6.00857,6.00857,0,0,0,4.72-2.3A15.68976,15.68976,0,0,0,114.5,79.96,14.13667,14.13667,0,0,0,106.39,66.98Zm1.56,20.23a2.062,2.062,0,0,1-1.6.79H21.42a1.89513,1.89513,0,0,1-1.67-.9,9.10843,9.10843,0,0,1-1.25-4.57,7.82746,7.82746,0,0,1,3.52-6.64,1.982,1.982,0,0,0,.92-1.76l-.01-.27c-.01-.13-.02-.26-.02-.39a9.5949,9.5949,0,0,1,7.27-9.51,2.01728,2.01728,0,0,0,1.57-2.11c-.01-.23-.03-.45-.03-.69a7.07767,7.07767,0,0,1,6.82-7.3,6.39321,6.39321,0,0,1,3.59,1.11c.28,6.9,5.35,12.43,11.57,12.43a2,2,0,0,0,0-4c-4.19,0-7.6-4.05-7.6-9.03a10.44846,10.44846,0,0,1,.28-2.32,9.23462,9.23462,0,0,1,14.98-1.33A11.56038,11.56038,0,0,0,72.9,61.4a2,2,0,0,0,0-4,7.71744,7.71744,0,0,1-3.82-1.02,7.619,7.619,0,0,1-3.57-4.89c.03-.05.07-.1.1-.16A8.18521,8.18521,0,0,1,72.7,47a8.02461,8.02461,0,0,1,6.19,3.01,1.99809,1.99809,0,0,0,2.46.50995,7.34281,7.34281,0,0,1,3.35-.83,8.007,8.007,0,0,1,7.71,7.69A2.01453,2.01453,0,0,0,94.4,59.25a8.23332,8.23332,0,0,1,7.8,6.76,1.92144,1.92144,0,0,0-.1.59,7.4686,7.4686,0,0,1-7.31,7.6,7.18645,7.18645,0,0,1-5.87-3.05,1.99541,1.99541,0,1,0-3.24,2.33,11.17186,11.17186,0,0,0,19.6-2.58,10.18687,10.18687,0,0,1,5.22,9.06A11.70731,11.70731,0,0,1,107.95,87.21Z"/><path class="cls-2" d="M121.5,124h-4V114h4a2,2,0,0,0,0-4h-7.52a8.99617,8.99617,0,0,0-7.48-14H7.5a2,2,0,0,0,0,4h4v10h-4a2,2,0,0,0,0,4h7.52a8.99617,8.99617,0,0,0,7.48,14h99a2,2,0,0,0,0-4Zm-106-14V100h91a5,5,0,0,1,0,10Zm98,14h-91a5,5,0,0,1,0-10h91Z"/><path class="cls-3" d="M113.5,114v10h-91a5,5,0,0,1,0-10Z"/><path class="cls-4" d="M111.5,105a5.00181,5.00181,0,0,1-5,5h-91V100h91A5.00181,5.00181,0,0,1,111.5,105Z"/><path class="cls-2" d="M74.43,10.95A3.98651,3.98651,0,0,0,71,9h-.45l1.19-3.59A3.84192,3.84192,0,0,0,72,4a3.99675,3.99675,0,0,0-3.99-4H62a3.98727,3.98727,0,0,0-3.79,2.74l-4,12A3.99746,3.99746,0,0,0,58,20h1L56.24,32.32a4.00143,4.00143,0,0,0,7.43,2.77l10.85-20.2A3.95983,3.95983,0,0,0,74.43,10.95ZM60.14,33.2,64,16H58L62,4h6l-3,9h6Z"/><polygon class="cls-5" points="60.14 33.2 64 16 58 16 62 4 68 4 65 13 71 13 60.14 33.2"/><path class="cls-2" d="M32.32,39.8,25.48,18.01a3.97425,3.97425,0,0,0-2.82-2.67,3.74175,3.74175,0,0,0-.99-.13,4.00511,4.00511,0,0,0-2.77,1.11l-.54.52-1.92-3.69a4.031,4.031,0,0,0-2.9-2.1,4.86,4.86,0,0,0-.65-.05,4.00536,4.00536,0,0,0-2.77,1.11L5.73,16.32a4.01221,4.01221,0,0,0-.78,4.74L10.8,32.29a4.0187,4.0187,0,0,0,2.9,2.09,3.65829,3.65829,0,0,0,.65.06,3.99726,3.99726,0,0,0,2.77-1.12l.93-.89L25.16,43.2A3.98272,3.98272,0,0,0,28.5,45a4.00624,4.00624,0,0,0,3.82-5.2ZM18.74,26.23l-4.39,4.21L8.5,19.21,12.89,15l4.39,8.42,4.39-4.21L28.5,41Z"/><polygon class="cls-5" points="28.5 41 18.74 26.23 14.35 30.44 8.5 19.21 12.89 15 17.28 23.42 21.67 19.21 28.5 41"/><path class="cls-2" d="M122.27,16.32l-4.39-4.21A4.00536,4.00536,0,0,0,115.11,11a4.86,4.86,0,0,0-.65.05,4.031,4.031,0,0,0-2.9,2.1l-1.92,3.69-.54-.52a4.00511,4.00511,0,0,0-2.77-1.11,3.74175,3.74175,0,0,0-.99.13,3.97425,3.97425,0,0,0-2.82,2.67L95.68,39.8a4.00191,4.00191,0,0,0,7.16,3.4l7.11-10.77.93.89a3.99726,3.99726,0,0,0,2.77,1.12,3.65829,3.65829,0,0,0,.65-.06,4.0187,4.0187,0,0,0,2.9-2.09l5.85-11.23A4.01221,4.01221,0,0,0,122.27,16.32Zm-8.62,14.12-4.39-4.21L99.5,41l6.83-21.79,4.39,4.21L115.11,15l4.39,4.21Z"/><polygon class="cls-5" points="119.5 19.21 113.65 30.44 109.26 26.23 99.5 41 106.33 19.21 110.72 23.42 115.11 15 119.5 19.21"/><path class="cls-6" d="M111.5,105a5.00181,5.00181,0,0,1-5,5h-91v-2h91a5.0099,5.0099,0,0,0,4.9-3.99A4.622,4.622,0,0,1,111.5,105Z"/><path class="cls-7" d="M110.5,79.96c0,.34-.02.68-.05,1.00995A10.08124,10.08124,0,0,0,105.28,72.9a11.17188,11.17188,0,0,1-19.6,2.58,1.972,1.972,0,0,1-.11-2.17,1.62677,1.62677,0,0,0,.11.17,11.17188,11.17188,0,0,0,19.6-2.58A10.18673,10.18673,0,0,1,110.5,79.96Z"/><path class="cls-7" d="M102.2,66.01a1.92144,1.92144,0,0,0-.1.59,5.6885,5.6885,0,0,1-.05.83,8.16892,8.16892,0,0,0-7.65-6.18A2.01453,2.01453,0,0,1,92.41,59.38a8.007,8.007,0,0,0-7.71-7.69,7.34211,7.34211,0,0,0-3.35.83,1.99818,1.99818,0,0,1-2.46-.51A8.02461,8.02461,0,0,0,72.7,49a8.15647,8.15647,0,0,0-6.77,3.79,7.303,7.303,0,0,1-.42-1.3c.03-.05.07-.1.1-.16A8.18515,8.18515,0,0,1,72.7,47a8.02461,8.02461,0,0,1,6.19,3.01,1.99818,1.99818,0,0,0,2.46.51,7.34211,7.34211,0,0,1,3.35-.83,8.007,8.007,0,0,1,7.71,7.69A2.01453,2.01453,0,0,0,94.4,59.25,8.23338,8.23338,0,0,1,102.2,66.01Z"/><path class="cls-7" d="M74.9,61.4a2.00591,2.00591,0,0,1-2,2A11.56037,11.56037,0,0,1,61.36,52.72a9.23462,9.23462,0,0,0-14.98,1.33,10.3055,10.3055,0,0,0-.22,1.37,8.9867,8.9867,0,0,1-.06-1.05,10.44846,10.44846,0,0,1,.28-2.32,9.23462,9.23462,0,0,1,14.98-1.33A11.56037,11.56037,0,0,0,72.9,61.4a1.99612,1.99612,0,0,0,1.73-1A1.99469,1.99469,0,0,1,74.9,61.4Z"/><path class="cls-7" d="M55.7,67.4a2.00591,2.00591,0,0,1-2,2c-6.22,0-11.29-5.53-11.57-12.43005a6.39321,6.39321,0,0,0-3.59-1.11,7.07767,7.07767,0,0,0-6.82,7.3c0,.24005.02.46.03.69a2.01735,2.01735,0,0,1-1.57,2.11A9.59478,9.59478,0,0,0,22.91,75.47c0,.13.01.26.02.39l.01.27a1.982,1.982,0,0,1-.92,1.76,7.76514,7.76514,0,0,0-3.46,5.63,8.2251,8.2251,0,0,1-.06-.99,7.82749,7.82749,0,0,1,3.52-6.64,1.982,1.982,0,0,0,.92-1.76l-.01-.27c-.01-.13-.02-.26-.02-.39A9.59478,9.59478,0,0,1,30.18,63.96a2.01735,2.01735,0,0,0,1.57-2.11c-.01-.23-.03-.45-.03-.69a7.07767,7.07767,0,0,1,6.82-7.3,6.39321,6.39321,0,0,1,3.59,1.11C42.41,61.87,47.48,67.4,53.7,67.4a1.99612,1.99612,0,0,0,1.73-1A1.99469,1.99469,0,0,1,55.7,67.4Z"/><path class="cls-8" d="M110.5,79.96a11.70744,11.70744,0,0,1-2.55,7.25,2.06194,2.06194,0,0,1-1.6.79H21.42a1.89513,1.89513,0,0,1-1.67-.9A9.10838,9.10838,0,0,1,18.5,82.53a8.432,8.432,0,0,1,.06-1.01,9.08138,9.08138,0,0,0,1.19,3.58,1.89513,1.89513,0,0,0,1.67.9h84.93a2.06194,2.06194,0,0,0,1.6-.79,11.688,11.688,0,0,0,2.5-6.24005A8.21158,8.21158,0,0,1,110.5,79.96Z"/><path class="cls-9" d="M111.5,105a4.622,4.622,0,0,1-.1.99,5.0099,5.0099,0,0,0-4.9-3.99h-91v-2h91A5.00181,5.00181,0,0,1,111.5,105Z"/><path class="cls-10" d="M113.5,114v2h-91a5.0099,5.0099,0,0,0-4.9,3.99,4.622,4.622,0,0,1-.1-.99,5.00181,5.00181,0,0,1,5-5Z"/><path class="cls-11" d="M113.5,122v2h-91a5.00181,5.00181,0,0,1-5-5,4.622,4.622,0,0,1,.1-.99A5.0099,5.0099,0,0,0,22.5,122Z"/><polygon class="cls-12" points="68 4 67.33 6 61.33 6 62 4 68 4"/><polygon class="cls-12" points="21.67 19.21 22.15 20.73 17.28 25.42 12.89 17 9.19 20.54 8.5 19.21 12.89 15 17.28 23.42 21.67 19.21"/><polygon class="cls-12" points="119.5 19.21 118.81 20.54 115.11 17 110.72 25.42 105.84 20.77 106.33 19.21 110.72 23.42 115.11 15 119.5 19.21"/></svg>