<?xml version="1.0" ?>
  <svg xmlns="http://www.w3.org/2000/svg" xmlns:xlink="http://www.w3.org/1999/xlink" version="1.1" id="Glyph" viewBox="0 0 64 64" enable-background="new 0 0 64 64" xml:space="preserve">
    <path d="M56,31h-3.15997c-0.44-1.44-1.76001-2.5-3.34003-2.5c-0.28003,0-0.54999,0.03998-0.81,0.09998L46.53998,24.87  C47.13,24.23999,47.5,23.39996,47.5,22.46997s-0.37-1.76996-0.96002-2.39996l2.57001-4.46002  c0.28003-0.47998,0.12-1.09003-0.35999-1.37c-0.47998-0.27002-1.09003-0.10999-1.37,0.37l-2.58002,4.46997  C44.53998,19.01001,44.28003,18.96997,44,18.96997c-1.58002,0-2.90002,1.06-3.34003,2.5h-4.31995  c-0.44-1.44-1.76001-2.5-3.34003-2.5c-0.28003,0-0.53998,0.04004-0.79999,0.10999l-2.16003-3.73999  C30.63,14.70996,31,13.87,31,12.95001c0-1.93005-1.57001-3.5-3.5-3.5c-1.58002,0-2.90002,1.06-3.34003,2.48999l-4.31995,0.01001  c-0.44-1.44-1.76001-2.5-3.34003-2.5c-1.92999,0-3.5,1.56995-3.5,3.5c0,0.92999,0.37,1.76996,0.96002,2.38995l-2.16003,3.73999  C11.53998,19.01001,11.28003,18.96997,11,18.96997c-1.92999,0-3.5,1.57001-3.5,3.5s1.57001,3.5,3.5,3.5  c0.28003,0,0.53998-0.03998,0.79999-0.09998l2.16003,3.73999C13.59003,30,13.32001,30.46997,13.15997,31H8c-0.54999,0-1,0.45001-1,1  s0.45001,1,1,1h5.15997c0.16003,0.52997,0.43005,1,0.80005,1.39001L11.79999,38.13c-0.26001-0.06-0.51996-0.10004-0.79999-0.10004  c-1.92999,0-3.5,1.57001-3.5,3.5s1.57001,3.5,3.5,3.5c0.28003,0,0.53998-0.03998,0.79999-0.10999l2.16003,3.73999  C13.37,49.27997,13,50.12,13,51.04999c0,1.92999,1.57001,3.5,3.5,3.5c1.58002,0,2.90002-1.06,3.34003-2.5L24.15997,52.06  c0.44,1.42999,1.76001,2.48999,3.34003,2.48999c1.92999,0,3.5-1.57001,3.5-3.5c0-0.91998-0.37-1.76001-0.96002-2.39001  l2.16003-3.73999c0.26001,0.07001,0.51996,0.10999,0.79999,0.10999c1.58002,0,2.90002-1.06,3.34003-2.5h4.31995  c0.44,1.44,1.76001,2.5,3.34003,2.5c0.28003,0,0.53998-0.03998,0.79999-0.10999c0,0,2.58002,4.46002,2.58002,4.47003  c0.26001,0.44995,0.88,0.63995,1.37,0.37c0.47998-0.28003,0.64001-0.89001,0.35999-1.37l-2.57001-4.46002  C47.13,43.29999,47.5,42.45996,47.5,41.52997s-0.37-1.76996-0.96002-2.39996L48.69,35.39996  c0.26001,0.06,0.52997,0.10004,0.81,0.10004c1.58002,0,2.90002-1.06,3.34003-2.5H56c0.54999,0,1-0.45001,1-1S56.54999,31,56,31z   M13.53998,24.87C14.13,24.23999,14.5,23.39996,14.5,22.46997s-0.37-1.76996-0.96002-2.39996L15.69,16.33997  c0.26001,0.07001,0.52997,0.11005,0.81,0.11005c1.58002,0,2.90002-1.06,3.34003-2.5L24.15997,13.94  c0.43005,1.45001,1.76001,2.51001,3.34003,2.51001c0.28003,0,0.54999-0.04004,0.81-0.11005l2.15002,3.73004  C29.87,20.70001,29.5,21.53998,29.5,22.46997s0.37,1.77002,0.96002,2.40002L28.31,28.59998  C28.04999,28.53998,27.78003,28.5,27.5,28.5c-1.58002,0-2.90002,1.06-3.34003,2.5h-4.31995c-0.44-1.44-1.76001-2.5-3.34003-2.5  c-0.28003,0-0.54999,0.03998-0.81,0.09998L13.53998,24.87z M30.46002,43.92999L28.31,47.65997  c-0.26001-0.07001-0.52997-0.10999-0.81-0.10999c-1.58002,0-2.90997,1.06-3.34003,2.51001l-4.31995-0.01001  c-0.44-1.44-1.76001-2.5-3.34003-2.5c-0.28003,0-0.54999,0.03998-0.79999,0.10999l-2.16003-3.72998  C14.13,43.29999,14.5,42.45996,14.5,41.52997s-0.37-1.76996-0.96002-2.39996L15.69,35.39996  c0.26001,0.06,0.52997,0.10004,0.81,0.10004c1.58002,0,2.90997-1.06,3.34003-2.5h4.31995c0.44,1.44,1.76001,2.5,3.34003,2.5  c0.28003,0,0.54999-0.04004,0.81-0.10004L30.46002,39.13C29.87,39.76001,29.5,40.59998,29.5,41.52997  S29.87,43.29999,30.46002,43.92999z M46.96002,34.39001L44.81,38.13c-0.26001-0.06-0.52997-0.10004-0.81-0.10004  c-1.58002,0-2.90997,1.06-3.34003,2.5h-4.31995c-0.43005-1.44-1.76001-2.5-3.34003-2.5c-0.28003,0-0.54999,0.04004-0.81,0.10004  l-2.15002-3.73999C30.63,33.76996,31,32.92999,31,32s-0.37-1.77002-0.96002-2.39001L32.19,25.87  c0.26001,0.06,0.52997,0.09998,0.81,0.09998c1.58002,0,2.90997-1.06,3.34003-2.5h4.31995c0.43005,1.44,1.76001,2.5,3.34003,2.5  c0.28003,0,0.54999-0.03998,0.81-0.09998l2.15002,3.73999C46.37,30.22998,46,31.07001,46,32S46.37,33.76996,46.96002,34.39001z"/>
  </svg>
