<?xml version="1.0" ?><svg xmlns="http://www.w3.org/2000/svg" id="Layer_1" data-name="Layer 1" viewBox="0 0 128 128"><defs><style>.cls-1{fill:#81d9e3;}.cls-2{fill:#e1ebf4;}.cls-3{fill:#fc785e;}.cls-4{fill:#2d4356;}.cls-5{fill:#9fa5aa;}.cls-5,.cls-6,.cls-7{opacity:0.5;}.cls-6{fill:#a54b3f;}.cls-7{fill:#fff;}.cls-8{fill:#0f423c;opacity:0.3;}.cls-9{fill:#e8fbfc;opacity:0.4;}</style></defs><title/><path class="cls-1" d="M88.75,37.5c-6-.875-4.625,1.125-6.375-6.375S72,21,67.125,22.5s-9,7.25-9.5,10.25a8.68336,8.68336,0,0,0-10.25,3.75S32.25,36.25,30.5,44.25s0,17.25,10,17.875H46V58a6,6,0,0,1,12,0V57a6,6,0,0,1,12,0v1a6,6,0,0,1,12,0v4.125h3.5S98.5,61.5,98.375,51.5,94.75,38.375,88.75,37.5Z"/><path class="cls-2" d="M120.67,26.5v72H7.33v-72H53.77c-.14.3-.28.6-.41.9a14.61479,14.61479,0,0,0-9.09,3.92A17.18824,17.18824,0,0,0,42,31.17,18.22916,18.22916,0,0,0,24,49.59a18.5272,18.5272,0,0,0,7.81,15.17A9.99913,9.99913,0,1,0,35.99,80h8.04A9.98642,9.98642,0,1,0,62,86a9.529,9.529,0,0,0-.27-2.27,9.67689,9.67689,0,0,0,4.54,0A9.529,9.529,0,0,0,66,86a10.00008,10.00008,0,1,0,17.97-6h8.04a10.00221,10.00221,0,1,0,4.18-15.24A18.5272,18.5272,0,0,0,104,49.59,18.27718,18.27718,0,0,0,87.74,31.26a18.99031,18.99031,0,0,0-1.49-4.76Z"/><circle class="cls-3" cx="64" cy="74" r="2"/><circle class="cls-1" cx="76" cy="86" r="2"/><circle class="cls-1" cx="52" cy="86" r="2"/><circle class="cls-3" cx="100" cy="74" r="2"/><circle class="cls-3" cx="28" cy="74" r="2"/><path class="cls-2" d="M10,104H118a6.01017,6.01017,0,0,0,5.65723-4H4.34277A6.01017,6.01017,0,0,0,10,104Z"/><path class="cls-4" d="M126,96h-3V30a6.00656,6.00656,0,0,0-6-6H84.81659a18.50328,18.50328,0,0,1,2.04761,4H117a2.002,2.002,0,0,1,2,2V96H9V30a2.002,2.002,0,0,1,2-2H50.04376a14.33294,14.33294,0,0,1,3.31952-.59766A18.64307,18.64307,0,0,1,55.16736,24H11a6.00656,6.00656,0,0,0-6,6V96H2a2.0001,2.0001,0,0,0-2,2,10.01114,10.01114,0,0,0,10,10H118a10.01114,10.01114,0,0,0,10-10A2.0001,2.0001,0,0,0,126,96Zm-8,8H10a6.01017,6.01017,0,0,1-5.65723-4H123.65723A6.01017,6.01017,0,0,1,118,104Z"/><path class="cls-4" d="M36.65948,32H15a2,2,0,0,0,0,4H29.89294A17.891,17.891,0,0,1,36.65948,32Z"/><path class="cls-4" d="M103.13733,44H113a2,2,0,0,0,0-4H101.35309A18.50861,18.50861,0,0,1,103.13733,44Z"/><path class="cls-4" d="M70,20A14.15758,14.15758,0,0,0,56.27393,31.59668a10.25226,10.25226,0,0,0-2.10742-.21729,10.48979,10.48979,0,0,0-8.44922,4.31055A13.54178,13.54178,0,0,0,42,35.17236,14.41993,14.41993,0,0,0,42,64v8H33.65a6,6,0,1,0,0,4H44a2.0001,2.0001,0,0,0,2-2V58a2,2,0,0,0-4,0v2a10.42238,10.42238,0,0,1,0-20.82764,9.59163,9.59163,0,0,1,3.77979.7749,1.99875,1.99875,0,0,0,2.5625-.92432,6.57291,6.57291,0,0,1,5.82422-3.64355,6.30725,6.30725,0,0,1,2.92041.71924,2.00019,2.00019,0,0,0,2.91748-1.76318A10.00472,10.00472,0,1,1,80,34.41357a10.81463,10.81463,0,0,1-.45312,3.10938,1.99979,1.99979,0,0,0,2.69482,2.4165A9.60152,9.60152,0,0,1,86,39.17236,10.42238,10.42238,0,0,1,86,60V58a2,2,0,0,0-4,0V74a2.0001,2.0001,0,0,0,2,2H94.35a6,6,0,1,0,0-4H86V64a14.41993,14.41993,0,0,0,0-28.82764,13.5623,13.5623,0,0,0-2.02783.15186Q84,34.87012,84,34.41357A14.22729,14.22729,0,0,0,70,20ZM28,76a2,2,0,1,1,2-2A2.002,2.002,0,0,1,28,76Zm72-4a2,2,0,1,1-2,2A2.002,2.002,0,0,1,100,72Z"/><path class="cls-4" d="M76,92a5.996,5.996,0,0,0,2-11.65V58a2,2,0,0,0-4,0V80.35A5.996,5.996,0,0,0,76,92Zm0-8a2,2,0,1,1-2,2A2.002,2.002,0,0,1,76,84Z"/><path class="cls-4" d="M52,56a2.0001,2.0001,0,0,0-2,2V80.35a6,6,0,1,0,4,0V58A2.0001,2.0001,0,0,0,52,56Zm0,32a2,2,0,1,1,2-2A2.002,2.002,0,0,1,52,88Z"/><path class="cls-4" d="M64,55a2.0001,2.0001,0,0,0-2,2V68.35a6,6,0,1,0,4,0V57A2.0001,2.0001,0,0,0,64,55Zm0,21a2,2,0,1,1,2-2A2.002,2.002,0,0,1,64,76Z"/><circle class="cls-4" cx="113" cy="34.00098" r="2"/><circle class="cls-4" cx="105" cy="34.00098" r="2"/><path class="cls-3" d="M10,104H118a6.01017,6.01017,0,0,0,5.65723-4H4.34277A6.01017,6.01017,0,0,0,10,104Z"/><path class="cls-5" d="M46.01,94A9.89651,9.89651,0,0,0,52,96H9V94Z"/><path class="cls-5" d="M70.01,94A9.89651,9.89651,0,0,0,76,96H52a9.89651,9.89651,0,0,0,5.99-2Z"/><path class="cls-5" d="M119,94v2H76a9.89651,9.89651,0,0,0,5.99-2Z"/><path class="cls-6" d="M123.66,100a6.0134,6.0134,0,0,1-5.66,4H10a6.01346,6.01346,0,0,1-5.66-4h1.2A5.94713,5.94713,0,0,0,10,102H118a5.94726,5.94726,0,0,0,4.46-2Z"/><path class="cls-7" d="M117,28H86.86847a18.55557,18.55557,0,0,1,.59656,2H117a2.00591,2.00591,0,0,1,2,2V30A2.00591,2.00591,0,0,0,117,28Z"/><path class="cls-7" d="M50.05695,28H11a2.00591,2.00591,0,0,0-2,2v2a2.00591,2.00591,0,0,1,2-2H45.92419A14.613,14.613,0,0,1,50.05695,28Z"/><path class="cls-8" d="M42,58v2A10.22545,10.22545,0,0,1,32,49.59c0-.34.02-.67.05-1A10.17254,10.17254,0,0,0,42,58Z"/><path class="cls-8" d="M96,49.59A10.22545,10.22545,0,0,1,86,60V58a10.1725,10.1725,0,0,0,9.95-9.41C95.98,48.92,96,49.25,96,49.59Z"/><path class="cls-9" d="M96,49.59c0,.34-.02.67-.05,1A10.17367,10.17367,0,0,0,86,41.17a9.58183,9.58183,0,0,0-3.76.77,2.00921,2.00921,0,0,1-2.11-.35,1.98734,1.98734,0,0,1-.58-2.07,4.74775,4.74775,0,0,0,.13-.50995,1.93205,1.93205,0,0,0,.45.58,2.00921,2.00921,0,0,0,2.11.35A9.58183,9.58183,0,0,1,86,39.17,10.22785,10.22785,0,0,1,96,49.59Z"/><path class="cls-9" d="M80,34.41a7.30877,7.30877,0,0,1-.05.94A9.98831,9.98831,0,0,0,60,36.34a1.99758,1.99758,0,0,1-2.91,1.76,6.3046,6.3046,0,0,0-2.92-.72,6.5907,6.5907,0,0,0-5.83,3.64,1.99117,1.99117,0,0,1-2.56.93005A9.513,9.513,0,0,0,42,41.17a10.17372,10.17372,0,0,0-9.95,9.42c-.03-.33-.05-.66-.05-1A10.22785,10.22785,0,0,1,42,39.17a9.513,9.513,0,0,1,3.78.78A1.99117,1.99117,0,0,0,48.34,39.02a6.5907,6.5907,0,0,1,5.83-3.64,6.3046,6.3046,0,0,1,2.92.72A1.99758,1.99758,0,0,0,60,34.34a10.00684,10.00684,0,1,1,20,.07Z"/></svg>