<?xml version="1.0" ?><svg viewBox="0 0 32 32" xmlns="http://www.w3.org/2000/svg"><title/><g data-name="measure height" id="measure_height"><path d="M23,24H11V6h3a1,1,0,0,0,0-2H11V3A1,1,0,0,0,9,3V24a3,3,0,0,0-3,3v2a1,1,0,0,0,1,1H25a1,1,0,0,0,1-1V27A3,3,0,0,0,23,24Zm1,4H8V27a1,1,0,0,1,1-1H23a1,1,0,0,1,1,1Z"/><path d="M14,8H13a1,1,0,0,0,0,2h1a1,1,0,0,0,0-2Z"/><path d="M14,20H13a1,1,0,0,0,0,2h1a1,1,0,0,0,0-2Z"/><path d="M14,16H13a1,1,0,0,0,0,2h1a1,1,0,0,0,0-2Z"/><path d="M14,12H13a1,1,0,0,0,0,2h1a1,1,0,0,0,0-2Z"/><path d="M24.29,17.29,23,18.59V5.41l1.29,1.3a1,1,0,0,0,1.42,0,1,1,0,0,0,0-1.42l-3-3a1,1,0,0,0-.33-.21,1,1,0,0,0-.76,0,1,1,0,0,0-.33.21l-3,3a1,1,0,0,0,1.42,1.42L21,5.41V18.59l-1.29-1.3a1,1,0,0,0-1.42,1.42l3,3a1,1,0,0,0,.33.21.94.94,0,0,0,.76,0,1,1,0,0,0,.33-.21l3-3a1,1,0,0,0-1.42-1.42Z"/></g></svg>