<?xml version="1.0" ?><svg data-name="Layer 1" id="Layer_1" viewBox="0 0 128 128" xmlns="http://www.w3.org/2000/svg"><defs><style>.cls-1{fill:#e1ebf4;}.cls-2{fill:#2d4356;}.cls-3{fill:#ffdb80;}.cls-4{fill:#81d9e3;}.cls-5{fill:#9fa5aa;}.cls-5,.cls-6,.cls-8{opacity:0.5;}.cls-6{fill:#fff;}.cls-7{fill:#ad9359;opacity:0.45;}.cls-8{fill:#f9edd2;}.cls-9{fill:#0f423c;opacity:0.3;}.cls-10{fill:#e8fbfc;opacity:0.4;}</style></defs><title/><path class="cls-1" d="M114.07,28V95.42h-5.49a8.0991,8.0991,0,0,0-.45-1.19,9.39476,9.39476,0,0,0-1.2-2,9.57276,9.57276,0,0,0-7.03-3.74,9.76059,9.76059,0,0,0-6.91-4.42,9.8013,9.8013,0,0,0-7.11-5.55l.02-2.58a10.29428,10.29428,0,0,0-2.92-7.27A8.87266,8.87266,0,0,0,76.68,66c-6.2,0-9.99,3.86-10.13,10.41V91.82a9.648,9.648,0,0,0-1.31-.21c-.22-.01-.45-.02-.68-.02a9.96861,9.96861,0,0,0-7.61,3.83H14.35V28H37.97a9.91883,9.91883,0,0,0,.57,1c.15.24.32.47.49005.69A9.51346,9.51346,0,0,0,38.92,31a9.26446,9.26446,0,0,0,1.24,4.7l.92,1.6a9.24518,9.24518,0,0,0,4.63,3.97,9.16557,9.16557,0,0,0,3.99,4.65l1.6.92a9.208,9.208,0,0,0,4.61,1.24,9.32776,9.32776,0,0,0,1.4-.11A9.27757,9.27757,0,0,0,63.08,50h1.84a9.27757,9.27757,0,0,0,5.77-2.03,9.32776,9.32776,0,0,0,1.4.11,9.208,9.208,0,0,0,4.61-1.24l1.6-.92a9.11828,9.11828,0,0,0,3.98-4.64,9.294,9.294,0,0,0,4.64-3.98l.92-1.6A9.155,9.155,0,0,0,89.07,31a8.16674,8.16674,0,0,0-.1-1.31c.17-.22.34-.45.49005-.69a9.91883,9.91883,0,0,0,.57-1Z"/><path class="cls-2" d="M54,51H23a2,2,0,0,0,0,4H54a2,2,0,0,0,0-4Z"/><path class="cls-2" d="M54,59H23a2,2,0,0,0,0,4H54a2,2,0,0,0,0-4Z"/><path class="cls-2" d="M54,67H23a2,2,0,0,0,0,4H54a2,2,0,0,0,0-4Z"/><path class="cls-2" d="M54,75H23a2,2,0,0,0,0,4H54a2,2,0,0,0,0-4Z"/><path class="cls-2" d="M54,83H23a2,2,0,0,0,0,4H54a2,2,0,0,0,0-4Z"/><path class="cls-2" d="M105,51H74a2,2,0,0,0,0,4h31a2,2,0,0,0,0-4Z"/><path class="cls-2" d="M105,59H74a2,2,0,0,0,0,4h31a2,2,0,0,0,0-4Z"/><path class="cls-2" d="M99.61,92.48a6.93378,6.93378,0,0,0-2.25.24,5.7885,5.7885,0,0,0-5.62-4.74H91.7a9.041,9.041,0,0,0-1.78.17,5.88263,5.88263,0,0,0-5.7-5.79,7.47027,7.47027,0,0,0-2.36.37l.04-6.81a6.23505,6.23505,0,0,0-1.76-4.43A4.87942,4.87942,0,0,0,76.68,70c-3.97,0-6.04,2.14-6.13,6.41V99.43c-1.56-1.97-3.5-3.65-5.64-3.83A5.86148,5.86148,0,0,0,59.65,98.56c-1.43005,2.75-.5,6.8,2.75,12.02l8.68,14.32a5.94072,5.94072,0,0,0,5.19,3.1h20.3a6.02033,6.02033,0,0,0,5.88-5.08l2.01-7.49a1.751,1.751,0,0,0,.05-.22c.29-1.97.47-15.35.49-16.89A5.75166,5.75166,0,0,0,99.61,92.48Zm.95,22.04s-2.03,7.63-2.06,7.71A2.039,2.039,0,0,1,96.57,124H76.27a1.95334,1.95334,0,0,1-1.7-1.04c-.01-.04-8.77-14.47-8.77-14.47-3.53-5.67-2.78-7.72-2.6-8.08a1.93749,1.93749,0,0,1,1.33-.83c.02,0,.03.01.04.01,1.67.14,4.52,4.25,6.14,8a2.00087,2.00087,0,0,0,3.84-.79V76.46C74.6,74,75.3,74,76.68,74c.85,0,1.22,1.24,1.22,1.9L77.82,106.89a2,2,0,0,0,4,0V88.3a2.13719,2.13719,0,0,1,2.36-1.94,1.88949,1.88949,0,0,1,1.74,2.01l-.01,18.43a2,2,0,0,0,4,0V92.86c0-.89,1.19-.88,1.81-.88A1.8083,1.8083,0,0,1,93.46,93.84V106.8a2,2,0,0,0,4,.01s.04-8.47.04-8.52a1.618,1.618,0,0,1,1.91-1.81A1.727,1.727,0,0,1,101,98.29C100.93,103.8,100.75,112.92,100.56,114.52Z"/><path class="cls-3" d="M101,98.29c-.07,5.51-.25,14.63-.44,16.23,0,0-2.03,7.63-2.06,7.71A2.039,2.039,0,0,1,96.57,124H76.27a1.95334,1.95334,0,0,1-1.7-1.04c-.01-.04-8.77-14.47-8.77-14.47-3.53-5.67-2.78-7.72-2.6-8.08a1.93749,1.93749,0,0,1,1.33-.83c.02,0,.03.01.04.01,1.67.14,4.52,4.25,6.14,8a2.00087,2.00087,0,0,0,3.84-.79V76.46C74.6,74,75.3,74,76.68,74c.85,0,1.22,1.24,1.22,1.9L77.82,106.89a2,2,0,0,0,4,0V88.3a2.13719,2.13719,0,0,1,2.36-1.94,1.88949,1.88949,0,0,1,1.74,2.01l-.01,18.43a2,2,0,0,0,4,0V92.86c0-.89,1.19-.88,1.81-.88A1.8083,1.8083,0,0,1,93.46,93.84V106.8a2,2,0,0,0,4,.01s.04-8.47.04-8.52a1.618,1.618,0,0,1,1.91-1.81A1.727,1.727,0,0,1,101,98.29Z"/><path class="cls-2" d="M84.36,17.54a5.19486,5.19486,0,0,0,.02-5.24l-.92-1.6a5.24885,5.24885,0,0,0-4.53-2.61h-.02a5.44811,5.44811,0,0,0-.18-1.38A5.19767,5.19767,0,0,0,76.3,3.54l-1.6-.92a5.18917,5.18917,0,0,0-5.24.02A5.22112,5.22112,0,0,0,64.92,0H63.08a5.22112,5.22112,0,0,0-4.54,2.64,5.18917,5.18917,0,0,0-5.24-.02l-1.6.92a5.19767,5.19767,0,0,0-2.43,3.17,5.44811,5.44811,0,0,0-.18,1.38h-.02a5.24885,5.24885,0,0,0-4.53,2.61l-.92,1.6a5.19486,5.19486,0,0,0,.02,5.24A5.2211,5.2211,0,0,0,41,22.08v1.84a5.221,5.221,0,0,0,2.64,4.54A5.195,5.195,0,0,0,43.62,33.7l.92,1.6a5.24892,5.24892,0,0,0,4.53,2.61h.02a5.44775,5.44775,0,0,0,.18,1.38,5.19733,5.19733,0,0,0,2.43,3.17l1.6.92a5.18956,5.18956,0,0,0,5.24-.02A5.22112,5.22112,0,0,0,63.08,46h1.84a5.22112,5.22112,0,0,0,4.54-2.64,5.18956,5.18956,0,0,0,5.24.02l1.6-.92a5.19733,5.19733,0,0,0,2.43-3.17,5.44775,5.44775,0,0,0,.18-1.38h.02a5.24892,5.24892,0,0,0,4.53-2.61l.92-1.6A5.195,5.195,0,0,0,84.36,28.46,5.23316,5.23316,0,0,0,87,23.92V22.08A5.2211,5.2211,0,0,0,84.36,17.54ZM83,23.92a1.22909,1.22909,0,0,1-1.23,1.23H80.06a.67714.67714,0,0,0-.67.57,16.69659,16.69659,0,0,1-.7,2.63.6595.6595,0,0,0,.29.82l1.49.86a1.22391,1.22391,0,0,1,.44,1.67s-.91,1.6-.92,1.6a1.23707,1.23707,0,0,1-1.67.44s-1.48-.85-1.49-.86a.70674.70674,0,0,0-.86.16,15.98537,15.98537,0,0,1-1.93,1.93.68888.68888,0,0,0-.16.86L74.74,37.32a1.21919,1.21919,0,0,1-.44,1.67s-1.59.92-1.6.92a1.23751,1.23751,0,0,1-1.67-.44l-.86-1.49a.6745.6745,0,0,0-.82-.29,16.69659,16.69659,0,0,1-2.63.7.67709.67709,0,0,0-.56995.67v1.71A1.22916,1.22916,0,0,1,64.92,42H63.08a1.22916,1.22916,0,0,1-1.23-1.23V39.06a.67709.67709,0,0,0-.56995-.67,16.69659,16.69659,0,0,1-2.63-.7.65087.65087,0,0,0-.82.29l-.86,1.49a1.23038,1.23038,0,0,1-1.67.44l-1.6-.92a1.21919,1.21919,0,0,1-.44-1.67L54.12,35.83a.68888.68888,0,0,0-.16-.86,15.98537,15.98537,0,0,1-1.93-1.93.69931.69931,0,0,0-.86-.16l-1.49.86a1.23045,1.23045,0,0,1-1.67-.44l-.92-1.6a1.22391,1.22391,0,0,1,.44-1.67l1.49-.86a.6595.6595,0,0,0,.29-.82,16.69659,16.69659,0,0,1-.7-2.63.67714.67714,0,0,0-.67-.57H46.23A1.22909,1.22909,0,0,1,45,23.92V22.08a1.22909,1.22909,0,0,1,1.23-1.23h1.71a.67709.67709,0,0,0,.67-.57,16.70013,16.70013,0,0,1,.7-2.63.65952.65952,0,0,0-.29-.82l-1.49-.86a1.22383,1.22383,0,0,1-.44-1.67s.91-1.59.92-1.6a1.25133,1.25133,0,0,1,1.67-.44s1.49.85,1.49.86a.69138.69138,0,0,0,.86-.16,15.99421,15.99421,0,0,1,1.93-1.93.68887.68887,0,0,0,.16-.86l-.86-1.49a1.21917,1.21917,0,0,1,.44-1.67s1.59-.92,1.6-.92a1.24687,1.24687,0,0,1,1.67.44l.86,1.49a.68623.68623,0,0,0,.82.29,16.69,16.69,0,0,1,2.63-.7A.67714.67714,0,0,0,61.85,6.94V5.23A1.22915,1.22915,0,0,1,63.08,4h1.84a1.22915,1.22915,0,0,1,1.23,1.23V6.94a.67714.67714,0,0,0,.56995.67,16.69,16.69,0,0,1,2.63.7.68258.68258,0,0,0,.82-.29s.86-1.48.86-1.49a1.242,1.242,0,0,1,1.67-.44l1.6.92a1.21917,1.21917,0,0,1,.44,1.67l-.86,1.49a.68887.68887,0,0,0,.16.86,15.99421,15.99421,0,0,1,1.93,1.93.70433.70433,0,0,0,.86.16l1.49-.86a1.23039,1.23039,0,0,1,1.67.44l.92,1.6a1.22383,1.22383,0,0,1-.44,1.67l-1.49.86a.65952.65952,0,0,0-.29.82,16.70013,16.70013,0,0,1,.7,2.63.67709.67709,0,0,0,.67.57h1.71A1.22909,1.22909,0,0,1,83,22.08Z"/><path class="cls-4" d="M81.77,20.85H80.06a.67709.67709,0,0,1-.67-.57,16.70013,16.70013,0,0,0-.7-2.63.65952.65952,0,0,1,.29-.82l1.49-.86a1.22383,1.22383,0,0,0,.44-1.67l-.92-1.6a1.23039,1.23039,0,0,0-1.67-.44l-1.49.86a.70433.70433,0,0,1-.86-.16,15.99421,15.99421,0,0,0-1.93-1.93.68887.68887,0,0,1-.16-.86l.86-1.49a1.21917,1.21917,0,0,0-.44-1.67l-1.6-.92a1.242,1.242,0,0,0-1.67.44c0,.01-.86,1.49-.86,1.49a.68258.68258,0,0,1-.82.29,16.69,16.69,0,0,0-2.63-.7A.67714.67714,0,0,1,66.15,6.94V5.23A1.22915,1.22915,0,0,0,64.92,4H63.08a1.22915,1.22915,0,0,0-1.23,1.23V6.94a.67714.67714,0,0,1-.56995.67,16.69,16.69,0,0,0-2.63.7.68623.68623,0,0,1-.82-.29l-.86-1.49a1.24687,1.24687,0,0,0-1.67-.44c-.01,0-1.6.92-1.6.92a1.21917,1.21917,0,0,0-.44,1.67l.86,1.49a.68887.68887,0,0,1-.16.86,15.99421,15.99421,0,0,0-1.93,1.93.69138.69138,0,0,1-.86.16c0-.01-1.49-.86-1.49-.86a1.25133,1.25133,0,0,0-1.67.44c-.01.00995-.92,1.6-.92,1.6a1.22383,1.22383,0,0,0,.44,1.67l1.49.86a.65952.65952,0,0,1,.29.82,16.70013,16.70013,0,0,0-.7,2.63.67709.67709,0,0,1-.67.57H46.23A1.22909,1.22909,0,0,0,45,22.08v1.84a1.22909,1.22909,0,0,0,1.23,1.23h1.71a.67714.67714,0,0,1,.67.57,16.69659,16.69659,0,0,0,.7,2.63.6595.6595,0,0,1-.29.82l-1.49.86a1.22391,1.22391,0,0,0-.44,1.67l.92,1.6a1.23045,1.23045,0,0,0,1.67.44l1.49-.86a.69931.69931,0,0,1,.86.16,15.98537,15.98537,0,0,0,1.93,1.93.68888.68888,0,0,1,.16.86L53.26,37.32a1.21919,1.21919,0,0,0,.44,1.67l1.6.92a1.23038,1.23038,0,0,0,1.67-.44l.86-1.49a.65087.65087,0,0,1,.82-.29,16.69659,16.69659,0,0,0,2.63.7.67709.67709,0,0,1,.56995.67v1.71A1.22916,1.22916,0,0,0,63.08,42h1.84a1.22916,1.22916,0,0,0,1.23-1.23V39.06a.67709.67709,0,0,1,.56995-.67,16.69659,16.69659,0,0,0,2.63-.7.6745.6745,0,0,1,.82.29l.86,1.49a1.23751,1.23751,0,0,0,1.67.44c.01,0,1.6-.92,1.6-.92a1.21919,1.21919,0,0,0,.44-1.67L73.88,35.83a.68888.68888,0,0,1,.16-.86,15.98537,15.98537,0,0,0,1.93-1.93.70674.70674,0,0,1,.86-.16c.01.01,1.49.86,1.49.86a1.23707,1.23707,0,0,0,1.67-.44c.01,0,.92-1.6.92-1.6a1.22391,1.22391,0,0,0-.44-1.67l-1.49-.86a.6595.6595,0,0,1-.29-.82,16.69659,16.69659,0,0,0,.7-2.63.67714.67714,0,0,1,.67-.57h1.71A1.22909,1.22909,0,0,0,83,23.92V22.08A1.22909,1.22909,0,0,0,81.77,20.85ZM64,32a9,9,0,1,1,9-9A9.01357,9.01357,0,0,1,64,32Z"/><path class="cls-2" d="M64,14a9,9,0,1,0,9,9A9.01353,9.01353,0,0,0,64,14Zm0,14a5,5,0,1,1,5-5A5.00181,5.00181,0,0,1,64,28Z"/><path class="cls-2" d="M105,67H80.70862a9.2325,9.2325,0,0,1,2.26892,1.6709A9.81816,9.81816,0,0,1,84.68475,71H105a2,2,0,0,0,0-4Z"/><path class="cls-2" d="M109.76953,25H90.9292a9.16454,9.16454,0,0,1-1.46149,4h20.30182A3.31253,3.31253,0,0,1,113,32.38184V90.23633c0,2.27441-1.38867,3.98926-3.23047,3.98926h-1.64691a9.93849,9.93849,0,0,1,.8728,4h.77411c4.05469,0,7.23047-3.50928,7.23047-7.98926V32.38184A7.31537,7.31537,0,0,0,109.76953,25Z"/><path class="cls-2" d="M105,75H85.85883c.02655.31128.043.62427.04156.939l-.01758,2.57617A9.43236,9.43236,0,0,1,87.549,79H105a2,2,0,0,0,0-4Z"/><path class="cls-2" d="M105,83H92.395a10.07987,10.07987,0,0,1,.57672,1.05908A9.677,9.677,0,0,1,98.72,87H105a2,2,0,0,0,0-4Z"/><path class="cls-2" d="M63.08063,50A9.23169,9.23169,0,0,1,62,49.92926V91.9726a8.8207,8.8207,0,0,1,3.24121-.35785c.25879.02155.50677.07831.75879.12231V49.92926A9.23169,9.23169,0,0,1,64.91937,50Z"/><path class="cls-5" d="M58.41,93.91a9.92625,9.92625,0,0,0-1.46,1.51h-.42a4.66294,4.66294,0,0,1-.59-.36,8.97228,8.97228,0,0,0-2.81-.83H18.23c-1.63,0-3.23-1.98-3.23-3.99v-2c0,2.01,1.6,3.99,3.23,3.99h34.9a12.01857,12.01857,0,0,1,3.77,1.24C57.45,93.65,57.95,93.79,58.41,93.91Z"/><path class="cls-6" d="M113,32.38v2A3.31434,3.31434,0,0,0,109.77,31H89.07a8.16674,8.16674,0,0,0-.1-1.31c.17-.22.34-.45.49005-.69h20.31A3.31434,3.31434,0,0,1,113,32.38Z"/><path class="cls-5" d="M113,88.24v2c0,2.27-1.39,3.99-3.23,3.99h-1.64a9.39476,9.39476,0,0,0-1.2-2h2.84C111.61,92.23,113,90.51,113,88.24Z"/><path class="cls-7" d="M101,98.29c-.07,5.51-.25,14.63-.44,16.23,0,0-2.03,7.63-2.06,7.71A2.039,2.039,0,0,1,96.57,124H76.27a1.95334,1.95334,0,0,1-1.7-1.04c-.01-.04-8.77-14.47-8.77-14.47-3.18-5.11-2.89-7.28-2.67-7.92a18.39211,18.39211,0,0,0,2.67,5.92s8.76,14.43,8.77,14.47a1.95334,1.95334,0,0,0,1.7,1.04h20.3a2.039,2.039,0,0,0,1.93-1.77c.03-.08,2.06-7.71,2.06-7.71.17-1.45.34-9.02.41-14.54A1.551,1.551,0,0,1,101,98.29Z"/><path class="cls-8" d="M74.55,106.8v2a2.00087,2.00087,0,0,1-3.84.79c-1.62-3.75-4.47-7.86-6.14-8-.01,0-.02-.01-.04-.01a1.93749,1.93749,0,0,0-1.33.83,1.429,1.429,0,0,0-.07.16,3.41057,3.41057,0,0,1,.07-2.16,1.93749,1.93749,0,0,1,1.33-.83c.02,0,.03.01.04.01,1.67.14,4.52,4.25,6.14,8a2.00087,2.00087,0,0,0,3.84-.79Z"/><path class="cls-8" d="M77.9,75.9v1.93c-.02-.67-.4-1.83-1.22-1.83-1.38,0-2.08,0-2.13,2.46v-2C74.6,74,75.3,74,76.68,74,77.53,74,77.9,75.24,77.9,75.9Z"/><path class="cls-8" d="M85.92,88.37v1.96a1.89172,1.89172,0,0,0-1.74-1.97,2.13719,2.13719,0,0,0-2.36,1.94v-2a2.13719,2.13719,0,0,1,2.36-1.94A1.88949,1.88949,0,0,1,85.92,88.37Z"/><path class="cls-8" d="M93.46,93.84v2A1.8083,1.8083,0,0,0,91.72,93.98c-.62,0-1.81-.01-1.81.88v-2c0-.89,1.19-.88,1.81-.88A1.8083,1.8083,0,0,1,93.46,93.84Z"/><path class="cls-8" d="M101,98.29c-.01.52-.02,1.07-.03,1.64a1.68181,1.68181,0,0,0-1.56-1.45,1.618,1.618,0,0,0-1.91,1.81c0,.05-.04,8.52-.04,8.52a2,2,0,0,1-4-.01v-2a2,2,0,0,0,4,.01s.04-8.47.04-8.52a1.618,1.618,0,0,1,1.91-1.81A1.727,1.727,0,0,1,101,98.29Z"/><path class="cls-9" d="M83,22.08v1.84a1.22909,1.22909,0,0,1-1.23,1.23H80.06a.67714.67714,0,0,0-.67.57,12.87638,12.87638,0,0,1-.35,1.49l-.06-.04a.6595.6595,0,0,1-.29-.82,16.69659,16.69659,0,0,0,.7-2.63.67714.67714,0,0,1,.67-.57h1.71A1.21858,1.21858,0,0,0,82.99,22,.21975.21975,0,0,1,83,22.08Z"/><path class="cls-9" d="M80.91,31.7s-.91,1.6-.92,1.6a1.23707,1.23707,0,0,1-1.67.44s-1.48-.85-1.49-.86a.70674.70674,0,0,0-.86.16,16.52974,16.52974,0,0,1-1.6,1.64l-.49-.85a.68888.68888,0,0,1,.16-.86,15.98537,15.98537,0,0,0,1.93-1.93.70674.70674,0,0,1,.86-.16c.01.01,1.49.86,1.49.86a1.23707,1.23707,0,0,0,1.67-.44c.01,0,.39-.67.66-1.14A1.22092,1.22092,0,0,1,80.91,31.7Z"/><path class="cls-9" d="M74.3,38.99s-1.59.92-1.6.92a1.23751,1.23751,0,0,1-1.67-.44l-.86-1.49a.6745.6745,0,0,0-.82-.29,16.69659,16.69659,0,0,1-2.63.7.67709.67709,0,0,0-.56995.67v1.71A1.22916,1.22916,0,0,1,64.92,42H63.08a1.22916,1.22916,0,0,1-1.23-1.23V39.06a.67709.67709,0,0,0-.56995-.67,16.69659,16.69659,0,0,1-2.63-.7.65087.65087,0,0,0-.82.29l-.86,1.49a1.23038,1.23038,0,0,1-1.67.44l-1.6-.92a1.21919,1.21919,0,0,1-.44-1.67l.26-.45c.05.04.12.08.18.12l1.6.92a1.23038,1.23038,0,0,0,1.67-.44l.86-1.49a.65087.65087,0,0,1,.82-.29,16.69659,16.69659,0,0,0,2.63.7.67709.67709,0,0,1,.56995.67v1.71A1.22916,1.22916,0,0,0,63.08,40h1.84a1.22916,1.22916,0,0,0,1.23-1.23V37.06a.67709.67709,0,0,1,.56995-.67,16.69659,16.69659,0,0,0,2.63-.7.6745.6745,0,0,1,.82.29l.86,1.49a1.23751,1.23751,0,0,0,1.67.44c.01,0,1.6-.92,1.6-.92.06-.04.13-.08.18-.12l.26.45A1.21919,1.21919,0,0,1,74.3,38.99Z"/><path class="cls-9" d="M54.12,33.83l-.49.85a16.52974,16.52974,0,0,1-1.6-1.64.69931.69931,0,0,0-.86-.16l-1.49.86a1.23045,1.23045,0,0,1-1.67-.44l-.92-1.6A1.22092,1.22092,0,0,1,47.35,30.16l.66,1.14a1.23045,1.23045,0,0,0,1.67.44l1.49-.86a.69931.69931,0,0,1,.86.16,15.98537,15.98537,0,0,0,1.93,1.93A.68888.68888,0,0,1,54.12,33.83Z"/><path class="cls-9" d="M49.02,27.17l-.06.04a12.87638,12.87638,0,0,1-.35-1.49.67714.67714,0,0,0-.67-.57H46.23A1.22909,1.22909,0,0,1,45,23.92V22.08a.21975.21975,0,0,1,.01-.08,1.21858,1.21858,0,0,0,1.22,1.15h1.71a.67714.67714,0,0,1,.67.57,16.69659,16.69659,0,0,0,.7,2.63A.6595.6595,0,0,1,49.02,27.17Z"/><path class="cls-10" d="M53.96,13.03a15.99421,15.99421,0,0,0-1.93,1.93.69138.69138,0,0,1-.86.16c0-.01-1.49-.86-1.49-.86a1.25133,1.25133,0,0,0-1.67.44c-.01.00995-.39.68-.66,1.14A1.22083,1.22083,0,0,1,47.09,14.3s.91-1.59.92-1.6a1.25133,1.25133,0,0,1,1.67-.44s1.49.85,1.49.86a.69138.69138,0,0,0,.86-.16,16.52909,16.52909,0,0,1,1.6-1.64l.49.85A.68887.68887,0,0,1,53.96,13.03Z"/><path class="cls-10" d="M80.65,15.84l-.66-1.14a1.23039,1.23039,0,0,0-1.67-.44l-1.49.86a.70433.70433,0,0,1-.86-.16,15.99421,15.99421,0,0,0-1.93-1.93.68887.68887,0,0,1-.16-.86l.49-.85a16.52909,16.52909,0,0,1,1.6,1.64.70433.70433,0,0,0,.86.16l1.49-.86a1.23039,1.23039,0,0,1,1.67.44l.92,1.6A1.22083,1.22083,0,0,1,80.65,15.84Z"/><path class="cls-10" d="M74.74,8.68l-.26.45c-.05-.04-.12-.08-.18-.12l-1.6-.92a1.242,1.242,0,0,0-1.67.44c0,.01-.86,1.49-.86,1.49a.68258.68258,0,0,1-.82.29,16.69,16.69,0,0,0-2.63-.7A.67714.67714,0,0,1,66.15,8.94V7.23A1.22915,1.22915,0,0,0,64.92,6H63.08a1.22915,1.22915,0,0,0-1.23,1.23V8.94a.67714.67714,0,0,1-.56995.67,16.69,16.69,0,0,0-2.63.7.68623.68623,0,0,1-.82-.29l-.86-1.49a1.24687,1.24687,0,0,0-1.67-.44c-.01,0-1.6.92-1.6.92-.06.04-.13.08-.18.12l-.26-.45a1.21917,1.21917,0,0,1,.44-1.67s1.59-.92,1.6-.92a1.24687,1.24687,0,0,1,1.67.44l.86,1.49a.68623.68623,0,0,0,.82.29,16.69,16.69,0,0,1,2.63-.7A.67714.67714,0,0,0,61.85,6.94V5.23A1.22915,1.22915,0,0,1,63.08,4h1.84a1.22915,1.22915,0,0,1,1.23,1.23V6.94a.67714.67714,0,0,0,.56995.67,16.69,16.69,0,0,1,2.63.7.68258.68258,0,0,0,.82-.29s.86-1.48.86-1.49a1.242,1.242,0,0,1,1.67-.44l1.6.92A1.21917,1.21917,0,0,1,74.74,8.68Z"/><path class="cls-6" d="M39.03,29.69A9.51346,9.51346,0,0,0,38.92,31H18.23A3.31434,3.31434,0,0,0,15,34.38v-2A3.31434,3.31434,0,0,1,18.23,29H38.54C38.69,29.24,38.86,29.47,39.03,29.69Z"/><path class="cls-2" d="M18.23047,94.22559C16.60059,94.22559,15,92.24951,15,90.23633V32.38184A3.31253,3.31253,0,0,1,18.23047,29H38.53235a9.16482,9.16482,0,0,1-1.46155-4H18.23047A7.31537,7.31537,0,0,0,11,32.38184V90.23633c0,4.25586,3.37891,7.98926,7.23047,7.98926H53.03516a15.0149,15.0149,0,0,1,2.205.88147,9.64041,9.64041,0,0,1,.86725-2.39514,8.73693,8.73693,0,0,1,.79437-1.24286,12.04452,12.04452,0,0,0-3.77191-1.24347Z"/></svg>