<?xml version="1.0" ?><svg data-name="Layer 1" id="Layer_1" viewBox="0 0 128 128" xmlns="http://www.w3.org/2000/svg"><title/><path d="M122,19H6a6.00656,6.00656,0,0,0-6,6V95a6.00656,6.00656,0,0,0,6,6H62v4H44a2,2,0,0,0,0,4H84a2,2,0,0,0,0-4H66v-4h56a6.00656,6.00656,0,0,0,6-6V25A6.00656,6.00656,0,0,0,122,19Zm2,76a2.002,2.002,0,0,1-2,2H6a2.002,2.002,0,0,1-2-2V93H124Zm0-6H4V25a2.002,2.002,0,0,1,2-2H122a2.002,2.002,0,0,1,2,2Z"/><path d="M95,55.08038v15.6037L66.01025,81.15137V45.49561l9.32288-2.82947a16.11457,16.11457,0,0,1-.242-4.10651L64,41.9259,31.58105,32.08643A1.99977,1.99977,0,0,0,29,34V72.08838a2.00079,2.00079,0,0,0,1.3208,1.88135L63.31055,85.88135c.03278.01178.06677.01648.09991.02649l.00281.00073A2.0029,2.0029,0,0,0,63.98975,86L64,85.99841,64.01025,86a2.0029,2.0029,0,0,0,.57648-.09143l.00281-.00073c.03314-.01.06714-.01471.09991-.02649L97.6792,73.96973A2.00079,2.00079,0,0,0,99,72.08838V56.0625l-1.72821-1.72821A16.14731,16.14731,0,0,1,95,55.08038Zm-33.01025,26.071L33,70.68408V36.69727l28.98975,8.79834Z"/><path d="M100.80725,46.55664a12.033,12.033,0,1,0-2.83044,2.82587l6.49194,6.49152a1.99979,1.99979,0,0,0,2.82813-2.82812Zm-4.11682-1.28857a7.99634,7.99634,0,1,1,0-11.314A8.00948,8.00948,0,0,1,96.69043,45.26807Z"/></svg>